# xmcd
#
# Track frame offsets: 
#        150
#        40677
#        46347
#        73292
#        95990
#        99897
#        168190
#        172050
#        209595
#        244057
#        247380
#
# Disc length: 3837 seconds
#
# Revision: 13
# Processed by: cddbd v1.5.2PL0 Copyright (c) Steve Scherf et al.
# Submitted via: ExactAudioCopy v0.99pb4
#
DISCID=a20efb0b
DTITLE=Albert King with Stevie Ray Vaughan - In Session
DYEAR=1999
DGENRE=Blues
TTITLE0=Call It Stormy Monday
TTITLE1="Old times"
TTITLE2=Pride and Joy
TTITLE3=Ask Me No Questions
TTITLE4="Pep talk"
TTITLE5=Blues at Sunrise
TTITLE6="Turn it over"
TTITLE7=Overall Junction
TTITLE8=Match Box Blues
TTITLE9="Who is Stevie?"
TTITLE10=Don't Lie to Me
EXTD=Recorded for the "In Session" CA-syndicated TV show at the CHCH s
EXTD=tudios, Hamilton CA-ON, 1983-12-06.\nAlbert King (1923-04-25/1992
EXTD=12-21): guitar, vocals\nStevie Ray Vaughan (1954-10-03/1990-08-2
EXTD=7): guitar, vocal (3]\nTony Llorens: piano, organ\nGus Thornton: 
EXTD=bass\nMichael Llorens: drums\nCD: Stax SCD-7501-2 (1999-08-24), U
EXTD=PC 025218750127.
EXTT0=
EXTT1=
EXTT2=
EXTT3=
EXTT4=
EXTT5=
EXTT6=
EXTT7=
EXTT8=
EXTT9=
EXTT10=
PLAYORDER=
